<svg width="32" height="32" viewBox="0 0 32 32" fill="none" xmlns="http://www.w3.org/2000/svg">
  <rect width="32" height="32" rx="4" fill="#14213D"/>
  <path d="M21 9H17C15.8954 9 15 9.89543 15 11V15C15 16.1046 15.8954 17 17 17H21C22.1046 17 23 16.1046 23 15V11C23 9.89543 22.1046 9 21 9Z" fill="#00A3FF"/>
  <path d="M15 17H11C9.89543 17 9 17.8954 9 19V23C9 24.1046 9.89543 25 11 25H15C16.1046 25 17 24.1046 17 23V19C17 17.8954 16.1046 17 15 17Z" fill="#00A3FF"/>
  <path d="M15 15H17V17H15V15Z" fill="#00A3FF"/>
</svg> 