<svg width="32" height="32" viewBox="0 0 32 32" fill="none" xmlns="http://www.w3.org/2000/svg">
  <rect width="32" height="32" rx="4" fill="#F26207"/>
  <circle cx="16" cy="16" r="3" fill="white"/>
  <path d="M16 7C16 8.65685 14.6569 10 13 10C11.3431 10 10 8.65685 10 7C10 5.34315 11.3431 4 13 4C14.6569 4 16 5.34315 16 7Z" fill="white"/>
  <path d="M22 16C23.6569 16 25 14.6569 25 13C25 11.3431 23.6569 10 22 10C20.3431 10 19 11.3431 19 13C19 14.6569 20.3431 16 22 16Z" fill="white"/>
  <path d="M16 25C16 26.6569 14.6569 28 13 28C11.3431 28 10 26.6569 10 25C10 23.3431 11.3431 22 13 22C14.6569 22 16 23.3431 16 25Z" fill="white"/>
</svg> 