<svg width="32" height="32" viewBox="0 0 32 32" fill="none" xmlns="http://www.w3.org/2000/svg">
  <rect width="32" height="32" rx="4" fill="#000000"/>
  <circle cx="16" cy="16" r="8" fill="url(#paint0_radial_0_1)" />
  <path d="M16 8C16 8 20 12 20 16C20 20 16 24 16 24C16 24 12 20 12 16C12 12 16 8 16 8Z" fill="#7A64FF" />
  <path d="M8 16C8 16 12 12 16 12C20 12 24 16 24 16C24 16 20 20 16 20C12 20 8 16 8 16Z" fill="#FF64C1" />
  <defs>
    <radialGradient id="paint0_radial_0_1" cx="0" cy="0" r="1" gradientUnits="userSpaceOnUse" gradientTransform="translate(16 16) rotate(90) scale(8)">
      <stop stop-color="#FFFFFF" stop-opacity="0.2"/>
      <stop offset="1" stop-color="#FFFFFF" stop-opacity="0"/>
    </radialGradient>
  </defs>
</svg> 